<?xml version="1.0" encoding="UTF-8"?>
<svg xmlns="http://www.w3.org/2000/svg" xmlns:xlink="http://www.w3.org/1999/xlink" width="16pt" height="16pt" viewBox="0 0 16 16" version="1.1">
<g id="surface1">
<path style=" stroke:none;fill-rule:nonzero;fill:rgb(0%,0%,0%);fill-opacity:1;" d="M 8 0.332031 C 3.578125 0.332031 0 3.851562 0 8.195312 C 0 11.667969 2.292969 14.613281 5.46875 15.652344 C 5.871094 15.726562 6.015625 15.484375 6.015625 15.273438 C 6.015625 15.089844 6.011719 14.59375 6.007812 13.9375 C 3.78125 14.414062 3.3125 12.882812 3.3125 12.882812 C 2.949219 11.976562 2.421875 11.734375 2.421875 11.734375 C 1.699219 11.246094 2.476562 11.257812 2.476562 11.257812 C 3.28125 11.3125 3.703125 12.066406 3.703125 12.066406 C 4.417969 13.269531 5.574219 12.921875 6.035156 12.71875 C 6.105469 12.210938 6.3125 11.867188 6.539062 11.667969 C 4.761719 11.472656 2.894531 10.796875 2.894531 7.785156 C 2.894531 6.925781 3.207031 6.226562 3.71875 5.675781 C 3.628906 5.476562 3.359375 4.675781 3.789062 3.59375 C 3.789062 3.59375 4.460938 3.382812 5.988281 4.402344 C 6.628906 4.226562 7.308594 4.140625 7.988281 4.136719 C 8.667969 4.140625 9.347656 4.226562 9.988281 4.402344 C 11.507812 3.382812 12.179688 3.59375 12.179688 3.59375 C 12.609375 4.675781 12.339844 5.476562 12.257812 5.675781 C 12.769531 6.226562 13.078125 6.925781 13.078125 7.785156 C 13.078125 10.804688 11.210938 11.46875 9.429688 11.664062 C 9.710938 11.898438 9.96875 12.378906 9.96875 13.117188 C 9.96875 14.167969 9.960938 15.015625 9.960938 15.269531 C 9.960938 15.476562 10.097656 15.722656 10.507812 15.644531 C 13.710938 14.613281 16 11.664062 16 8.195312 C 16 3.851562 12.417969 0.332031 8 0.332031 Z M 8 0.332031 "/>
</g>
</svg>
