<?xml version="1.0" encoding="UTF-8"?>
<svg xmlns="http://www.w3.org/2000/svg" xmlns:xlink="http://www.w3.org/1999/xlink" width="16pt" height="16pt" viewBox="0 0 16 16" version="1.1">
<g id="surface1">
<path style=" stroke:none;fill-rule:nonzero;fill:rgb(0%,0%,0%);fill-opacity:1;" d="M 11.589844 0 L 4.417969 0 C 1.980469 0 0 1.980469 0 4.417969 L 0 11.589844 C 0 14.023438 1.980469 16.007812 4.417969 16.007812 L 11.589844 16.007812 C 14.023438 16.007812 16.007812 14.023438 16.007812 11.589844 L 16.007812 4.417969 C 16.007812 1.980469 14.023438 0 11.589844 0 Z M 14.585938 11.589844 C 14.585938 13.242188 13.242188 14.585938 11.589844 14.585938 L 4.417969 14.585938 C 2.765625 14.585938 1.421875 13.242188 1.421875 11.589844 L 1.421875 4.417969 C 1.421875 2.765625 2.765625 1.421875 4.417969 1.421875 L 11.589844 1.421875 C 13.242188 1.421875 14.585938 2.765625 14.585938 4.417969 Z M 14.585938 11.589844 "/>
<path style=" stroke:none;fill-rule:nonzero;fill:rgb(0%,0%,0%);fill-opacity:1;" d="M 8.003906 3.878906 C 5.730469 3.878906 3.878906 5.730469 3.878906 8.003906 C 3.878906 10.277344 5.730469 12.128906 8.003906 12.128906 C 10.277344 12.128906 12.128906 10.277344 12.128906 8.003906 C 12.128906 5.730469 10.277344 3.878906 8.003906 3.878906 Z M 8.003906 10.707031 C 6.511719 10.707031 5.296875 9.492188 5.296875 8.003906 C 5.296875 6.511719 6.511719 5.300781 8.003906 5.300781 C 9.492188 5.300781 10.707031 6.511719 10.707031 8.003906 C 10.707031 9.492188 9.492188 10.707031 8.003906 10.707031 Z M 8.003906 10.707031 "/>
<path style=" stroke:none;fill-rule:nonzero;fill:rgb(0%,0%,0%);fill-opacity:1;" d="M 12.300781 2.675781 C 12.027344 2.675781 11.757812 2.785156 11.566406 2.980469 C 11.371094 3.171875 11.257812 3.441406 11.257812 3.714844 C 11.257812 3.988281 11.371094 4.257812 11.566406 4.453125 C 11.757812 4.644531 12.027344 4.757812 12.300781 4.757812 C 12.574219 4.757812 12.84375 4.644531 13.035156 4.453125 C 13.230469 4.257812 13.339844 3.988281 13.339844 3.714844 C 13.339844 3.441406 13.230469 3.171875 13.035156 2.980469 C 12.84375 2.785156 12.574219 2.675781 12.300781 2.675781 Z M 12.300781 2.675781 "/>
</g>
</svg>
