<?xml version="1.0" encoding="UTF-8"?>
<svg xmlns="http://www.w3.org/2000/svg" xmlns:xlink="http://www.w3.org/1999/xlink" width="16pt" height="16pt" viewBox="0 0 16 16" version="1.1">
<g id="surface1">
<path style=" stroke:none;fill-rule:nonzero;fill:rgb(0%,0%,0%);fill-opacity:1;" d="M 1.519531 3.765625 C 1.085938 3.765625 0.730469 4.117188 0.730469 4.554688 L 0.730469 15.210938 C 0.730469 15.648438 1.085938 16 1.519531 16 C 1.957031 16 2.308594 15.648438 2.308594 15.210938 L 2.308594 4.554688 C 2.308594 4.117188 1.957031 3.765625 1.519531 3.765625 Z M 1.519531 3.765625 "/>
<path style=" stroke:none;fill-rule:nonzero;fill:rgb(0%,0%,0%);fill-opacity:1;" d="M 7.148438 12.09375 C 6.714844 12.09375 6.359375 12.445312 6.359375 12.882812 L 6.359375 15.210938 C 6.359375 15.648438 6.714844 16 7.148438 16 C 7.585938 16 7.9375 15.648438 7.9375 15.210938 L 7.9375 12.882812 C 7.9375 12.445312 7.585938 12.09375 7.148438 12.09375 Z M 7.148438 12.09375 "/>
<path style=" stroke:none;fill-rule:nonzero;fill:rgb(0%,0%,0%);fill-opacity:1;" d="M 10.816406 4.613281 C 9.71875 4.613281 8.714844 5.011719 7.9375 5.671875 L 7.9375 4.554688 C 7.9375 4.117188 7.585938 3.765625 7.148438 3.765625 C 6.714844 3.765625 6.359375 4.117188 6.359375 4.554688 L 6.359375 9.066406 C 6.359375 9.503906 6.714844 9.855469 7.148438 9.855469 C 7.585938 9.855469 7.9375 9.503906 7.9375 9.066406 C 7.9375 7.480469 9.226562 6.191406 10.816406 6.191406 C 12.402344 6.191406 13.691406 7.480469 13.691406 9.066406 L 13.691406 15.210938 C 13.691406 15.648438 14.042969 16 14.480469 16 C 14.914062 16 15.269531 15.648438 15.269531 15.210938 L 15.269531 9.066406 C 15.269531 6.613281 13.269531 4.613281 10.816406 4.613281 Z M 10.816406 4.613281 "/>
<path style=" stroke:none;fill-rule:nonzero;fill:rgb(0%,0%,0%);fill-opacity:1;" d="M 1.519531 1.578125 C 1.726562 1.578125 1.929688 1.492188 2.078125 1.347656 C 2.222656 1.199219 2.308594 0.996094 2.308594 0.789062 C 2.308594 0.582031 2.222656 0.378906 2.078125 0.230469 C 1.929688 0.0859375 1.726562 0 1.519531 0 C 1.3125 0 1.109375 0.0859375 0.960938 0.230469 C 0.816406 0.378906 0.730469 0.582031 0.730469 0.789062 C 0.730469 0.996094 0.816406 1.199219 0.960938 1.347656 C 1.109375 1.492188 1.3125 1.578125 1.519531 1.578125 Z M 1.519531 1.578125 "/>
</g>
</svg>
