<?xml version="1.0" encoding="UTF-8"?>
<svg xmlns="http://www.w3.org/2000/svg" xmlns:xlink="http://www.w3.org/1999/xlink" width="16pt" height="16pt" viewBox="0 0 16 16" version="1.1">
<g id="surface1">
<path style=" stroke:none;fill-rule:nonzero;fill:rgb(0%,0%,0%);fill-opacity:1;" d="M 15.148438 0 L 0.851562 0 C 0.382812 0 0 0.382812 0 0.851562 L 0 15.148438 C 0 15.617188 0.382812 16 0.851562 16 L 15.148438 16 C 15.617188 16 16 15.617188 16 15.148438 L 16 0.851562 C 16 0.382812 15.617188 0 15.148438 0 Z M 4.496094 14.332031 L 1.867188 14.332031 L 1.867188 5.871094 L 4.496094 5.871094 Z M 3.183594 4.714844 C 2.339844 4.714844 1.65625 4.035156 1.65625 3.191406 C 1.65625 2.351562 2.339844 1.667969 3.183594 1.667969 C 4.023438 1.667969 4.707031 2.351562 4.707031 3.191406 C 4.707031 4.035156 4.023438 4.714844 3.183594 4.714844 Z M 14.34375 14.332031 L 11.714844 14.332031 L 11.714844 10.21875 C 11.714844 9.238281 11.699219 7.976562 10.347656 7.976562 C 8.980469 7.976562 8.773438 9.042969 8.773438 10.148438 L 8.773438 14.332031 L 6.144531 14.332031 L 6.144531 5.871094 L 8.667969 5.871094 L 8.667969 7.027344 L 8.703125 7.027344 C 9.054688 6.363281 9.910156 5.664062 11.1875 5.664062 C 13.851562 5.664062 14.34375 7.414062 14.34375 9.691406 Z M 14.34375 14.332031 "/>
</g>
</svg>
