<?xml version="1.0" encoding="UTF-8"?>
<svg xmlns="http://www.w3.org/2000/svg" xmlns:xlink="http://www.w3.org/1999/xlink" width="16pt" height="16pt" viewBox="0 0 16 16" version="1.1">
<g id="surface1">
<path style=" stroke:none;fill-rule:nonzero;fill:rgb(0%,0%,0%);fill-opacity:1;" d="M 15.535156 2.84375 C 15.53125 2.84375 15.53125 2.84375 15.53125 2.84375 L 11.28125 2.84375 L 11.28125 2.375 C 11.28125 1.601562 10.648438 0.96875 9.875 0.96875 L 6.125 0.96875 C 5.347656 0.96875 4.71875 1.601562 4.71875 2.375 L 4.71875 2.84375 L 0.46875 2.84375 C 0.207031 2.84375 0 3.058594 0 3.3125 L 0 13.625 C 0 14.398438 0.628906 15.03125 1.40625 15.03125 L 14.59375 15.03125 C 15.367188 15.03125 16 14.398438 16 13.625 L 16 3.324219 C 16 3.320312 16 3.320312 16 3.320312 C 15.980469 3.011719 15.792969 2.84375 15.535156 2.84375 Z M 5.65625 2.375 C 5.65625 2.117188 5.867188 1.90625 6.125 1.90625 L 9.875 1.90625 C 10.132812 1.90625 10.34375 2.117188 10.34375 2.375 L 10.34375 2.84375 L 5.65625 2.84375 Z M 14.882812 3.78125 L 13.425781 8.148438 C 13.359375 8.339844 13.183594 8.46875 12.980469 8.46875 L 10.34375 8.46875 L 10.34375 8 C 10.34375 7.742188 10.132812 7.53125 9.875 7.53125 L 6.125 7.53125 C 5.867188 7.53125 5.65625 7.742188 5.65625 8 L 5.65625 8.46875 L 3.019531 8.46875 C 2.816406 8.46875 2.640625 8.339844 2.574219 8.148438 L 1.121094 3.78125 Z M 9.40625 8.46875 L 9.40625 9.40625 L 6.59375 9.40625 L 6.59375 8.46875 Z M 15.0625 13.625 C 15.0625 13.882812 14.851562 14.09375 14.59375 14.09375 L 1.40625 14.09375 C 1.148438 14.09375 0.9375 13.882812 0.9375 13.625 L 0.9375 6.199219 L 1.683594 8.445312 C 1.878906 9.019531 2.414062 9.40625 3.019531 9.40625 L 5.65625 9.40625 L 5.65625 9.875 C 5.65625 10.132812 5.867188 10.34375 6.125 10.34375 L 9.875 10.34375 C 10.132812 10.34375 10.34375 10.132812 10.34375 9.875 L 10.34375 9.40625 L 12.980469 9.40625 C 13.585938 9.40625 14.121094 9.019531 14.316406 8.445312 L 15.0625 6.199219 Z M 15.0625 13.625 "/>
</g>
</svg>
