<?xml version="1.0" encoding="UTF-8"?>
<svg xmlns="http://www.w3.org/2000/svg" xmlns:xlink="http://www.w3.org/1999/xlink" width="16pt" height="16pt" viewBox="0 0 16 16" version="1.1">
<g id="surface1">
<path style=" stroke:none;fill-rule:nonzero;fill:rgb(0%,0%,0%);fill-opacity:1;" d="M 15.105469 0.878906 C 14.519531 0.292969 13.8125 0 12.988281 0 L 2.996094 0 C 2.171875 0 1.464844 0.292969 0.878906 0.878906 C 0.292969 1.464844 0 2.171875 0 2.996094 L 0 12.984375 C 0 13.8125 0.292969 14.519531 0.878906 15.105469 C 1.464844 15.691406 2.171875 15.984375 2.996094 15.984375 L 12.984375 15.984375 C 13.8125 15.984375 14.519531 15.691406 15.105469 15.105469 C 15.691406 14.519531 15.984375 13.8125 15.984375 12.984375 L 15.984375 2.996094 C 15.984375 2.171875 15.691406 1.464844 15.105469 0.878906 Z M 12.226562 6.148438 C 12.234375 6.210938 12.238281 6.304688 12.238281 6.429688 C 12.238281 7.011719 12.152344 7.597656 11.980469 8.183594 C 11.8125 8.769531 11.550781 9.332031 11.203125 9.871094 C 10.851562 10.40625 10.433594 10.882812 9.949219 11.296875 C 9.460938 11.707031 8.878906 12.039062 8.199219 12.285156 C 7.519531 12.53125 6.792969 12.652344 6.015625 12.652344 C 4.808594 12.652344 3.691406 12.328125 2.664062 11.675781 C 2.832031 11.695312 3.003906 11.707031 3.183594 11.707031 C 4.191406 11.707031 5.097656 11.394531 5.902344 10.769531 C 5.429688 10.761719 5.007812 10.617188 4.636719 10.332031 C 4.265625 10.046875 4.007812 9.6875 3.859375 9.25 C 4.042969 9.277344 4.175781 9.292969 4.265625 9.292969 C 4.417969 9.292969 4.597656 9.265625 4.796875 9.210938 C 4.289062 9.113281 3.863281 8.859375 3.515625 8.453125 C 3.171875 8.050781 2.996094 7.585938 2.996094 7.066406 L 2.996094 7.042969 C 3.363281 7.21875 3.710938 7.308594 4.039062 7.316406 C 3.40625 6.890625 3.089844 6.285156 3.089844 5.496094 C 3.089844 5.105469 3.191406 4.738281 3.390625 4.390625 C 3.941406 5.0625 4.605469 5.601562 5.390625 6.003906 C 6.175781 6.40625 7.011719 6.632812 7.910156 6.679688 C 7.875 6.546875 7.855469 6.382812 7.855469 6.179688 C 7.855469 5.578125 8.070312 5.0625 8.496094 4.636719 C 8.921875 4.210938 9.4375 3.996094 10.042969 3.996094 C 10.679688 3.996094 11.210938 4.226562 11.632812 4.683594 C 12.113281 4.59375 12.578125 4.414062 13.027344 4.152344 C 12.855469 4.6875 12.53125 5.089844 12.0625 5.371094 C 12.511719 5.308594 12.929688 5.1875 13.320312 5.015625 C 13.027344 5.460938 12.664062 5.835938 12.226562 6.148438 Z M 12.226562 6.148438 "/>
</g>
</svg>
